# xmcd
#
# Track frame offsets: 
#        150
#        15500
#        42124
#
# Disc length: 1338 seconds
#
# Revision: 0
# Processed by: cddbd v1.5.1PL0 Copyright (c) Steve Scherf et al.
# Submitted via: ExactAudioCopy v0.95a5
#
DISCID=16053803
DTITLE=Velcra - Water Is Getting High CDS
DYEAR=2004
DGENRE=Metal
TTITLE0=Water Is Getting High
TTITLE1=Water Is Getting High (Demo)
TTITLE2=My Law (Video)
EXTD=
EXTT0=
EXTT1=
EXTT2=
PLAYORDER=
